{"title":"Blow 2001 Dvdrip","uid":8043785,"size":1414827314,"categoryP":"video","categoryS":"movies","magnet":"?xt=urn:btih:2259065051fef4e34d52b25ed3da578fbfe95e84&amp;dn=Blow+2001+Dvdrip&amp;tr=udp%3A%2F%2Ftracker.openbittorrent.com%3A80&amp;tr=udp%3A%2F%2Fopen.demonii.com%3A1337&amp;tr=udp%3A%2F%2Ftracker.coppersurfer.tk%3A6969&amp;tr=udp%3A%2F%2Fexodus.desync.com%3A6969","seeders":0,"leechers":1,"uploader":"Armani-1","files":5,"time":1358701194,"description":" &lt;a href=&quot;http://www.piczend.com/image/1358697201_vlcsnap-2013-01-20-08h51m24s59.png&quot; rel=&quot;nofollow&quot; target=&quot;_NEW&quot;&gt;http://www.piczend.com/image/1358697201_vlcsnap-2013-01-20-08h51m24s59.png&lt;/a&gt; &lt;a href=&quot;\nhttp://www.piczend.com/image/1358697202_vlcsnap-2013-01-20-08h51m41s236.png&quot; rel=&quot;nofollow&quot; target=&quot;_NEW&quot;&gt;\nhttp://www.piczend.com/image/1358697202_vlcsnap-2013-01-20-08h51m41s236.png&lt;/a&gt; &lt;a href=&quot;\nhttp://www.piczend.com/image/1358697196_vlcsnap-2013-01-20-08h51m52s85.png&quot; rel=&quot;nofollow&quot; target=&quot;_NEW&quot;&gt;\nhttp://www.piczend.com/image/1358697196_vlcsnap-2013-01-20-08h51m52s85.png&lt;/a&gt; &lt;a href=&quot;\nhttp://www.piczend.com/image/1358697203_vlcsnap-2013-01-20-08h51m55s120.png&quot; rel=&quot;nofollow&quot; target=&quot;_NEW&quot;&gt;\nhttp://www.piczend.com/image/1358697203_vlcsnap-2013-01-20-08h51m55s120.png&lt;/a&gt; &lt;a href=&quot;\nhttp://www.piczend.com/image/1358697200_vlcsnap-2013-01-20-08h52m21s118.png&quot; rel=&quot;nofollow&quot; target=&quot;_NEW&quot;&gt;\nhttp://www.piczend.com/image/1358697200_vlcsnap-2013-01-20-08h52m21s118.png&lt;/a&gt;\ninfo : \nVideo\nID                                       : 1\nFormat                                   : MPEG-4 Visual\nFormat profile                           : Simple@L1\nFormat settings, BVOP                    : No\nFormat settings, QPel                    : No\nFormat settings, GMC                     : No warppoints\nFormat settings, Matrix                  : Default (H.263)\nCodec ID                                 : 20\nDuration                                 : 2h 3mn\nBit rate mode                            : Constant\nBit rate                                 : 785 Kbps\nWidth                                    : 1 280 pixels\nHeight                                   : 552 pixels\nDisplay aspect ratio                     : 2.35:1\nFrame rate mode                          : Constant\nFrame rate                               : 23.976 fps\nColor space                              : YUV\nChroma subsampling                       : 4:2:0\nBit depth                                : 8 bits\nScan type                                : Progressive\nCompression mode                         : Lossy\nBits/(Pixel*Frame)                       : 0.046\nStream size                              : 692 MiB (83%)\nWriting library                          : Lavc53.36.0\n\nAudio\nID                                       : 2\nFormat                                   : AAC\nFormat/Info                              : Advanced Audio Codec\nFormat profile                           : LC\nCodec ID                                 : 40\nDuration                                 : 2h 3mn\nBit rate mode                            : Constant\nBit rate                                 : 160 Kbps\nChannel(s)                               : 2 channels\nChannel positions                        : Front: L R\nSampling rate                            : 48.0 KHz\nCompression mode                         : Lossy\nStream size                              : 141 MiB (17%)\n","torrent":{"xt":"urn:btih:2259065051fef4e34d52b25ed3da578fbfe95e84","amp;dn":"Blow+2001+Dvdrip","amp;tr":["udp%3A%2F%2Ftracker.openbittorrent.com%3A80","udp%3A%2F%2Fopen.demonii.com%3A1337","udp%3A%2F%2Ftracker.coppersurfer.tk%3A6969","udp%3A%2F%2Fexodus.desync.com%3A6969"],"infoHash":"2259065051fef4e34d52b25ed3da578fbfe95e84","infoHashBuffer":{"type":"Buffer","data":[34,89,6,80,81,254,244,227,77,82,178,94,211,218,87,143,191,233,94,132]},"announce":[],"urlList":[]}}